<?xml version="1.0" encoding="UTF-8" standalone="no"?>
<!DOCTYPE svg PUBLIC "-//W3C//DTD SVG 1.1//EN" "http://www.w3.org/Graphics/SVG/1.1/DTD/svg11.dtd">
<svg version="1.1" xmlns="http://www.w3.org/2000/svg" xmlns:xlink="http://www.w3.org/1999/xlink" preserveAspectRatio="xMidYMid meet" viewBox="0 0 640 640" width="640" height="640"><defs><path d="M640 0L0 0L0 90L640 90L640 0Z" id="c3PKRr7AZ5"></path><path d="M0 0L0 640L90 640L90 0L0 0Z" id="eJWvCtn3y"></path><path d="M640 550L0 550L0 640L640 640L640 550Z" id="c6kLtTbKbB"></path><path d="M550 0L550 640L640 640L640 0L550 0Z" id="bh4PbeE25"></path><path d="M563.18 13.18L13.18 563.18L76.82 626.82L626.82 76.82L563.18 13.18Z" id="bFlpaIntT"></path><path d="M374.37 230L0 230L0 320L374.37 320L374.37 230Z" id="daqXppUdh"></path></defs><g><g><g><use xlink:href="#c3PKRr7AZ5" opacity="1" fill="#ff4655" fill-opacity="1"></use></g><g><use xlink:href="#eJWvCtn3y" opacity="1" fill="#ff4655" fill-opacity="1"></use></g><g><use xlink:href="#c6kLtTbKbB" opacity="1" fill="#ff4655" fill-opacity="1"></use></g><g><use xlink:href="#bh4PbeE25" opacity="1" fill="#ff4655" fill-opacity="1"></use></g><g><use xlink:href="#bFlpaIntT" opacity="1" fill="#ff4655" fill-opacity="1"></use></g><g><use xlink:href="#daqXppUdh" opacity="1" fill="#ff4655" fill-opacity="1"></use></g></g></g></svg>